# Blender v3.0.1 OBJ File: ''
# www.blender.org
mtllib untitled.mtl
o Cube_Cube.001
v 1.000000 -0.117502 -1.000000
v 1.000000 -0.117502 1.000000
v -1.000000 -0.117502 1.000000
v -1.000000 -0.117502 -1.000000
v 1.000000 2.032498 -1.000000
v 0.999999 2.032498 1.000000
v -1.000000 2.032498 0.999999
v -1.000000 2.032498 -1.000000
v 1.000000 1.032498 1.000000
v -1.000000 1.032498 1.000000
v 0.884621 1.132877 1.001023
v 0.884621 1.932119 1.001023
v -0.884622 1.932119 1.001022
v -0.884621 1.132877 1.001022
v 0.884621 0.132877 1.001023
v 0.884621 0.932119 1.001023
v -0.884621 0.932119 1.001022
v -0.884621 0.132877 1.001022
v 0.884621 1.132877 1.067143
v 0.884621 1.932119 1.067143
v -0.884621 1.132877 1.067143
v -0.884622 1.932119 1.067142
v 0.884621 0.132877 1.067143
v 0.884621 0.932119 1.067143
v -0.884621 0.132877 1.067143
v -0.884621 0.932119 1.067142
v 0.092143 1.470844 1.068172
v 0.092143 1.594152 1.068173
v -0.092143 1.594152 1.068172
v -0.092143 1.470844 1.068172
v 0.092143 0.470844 1.068168
v 0.092143 0.594152 1.068168
v -0.092143 0.594152 1.068168
v -0.092143 0.470844 1.068168
v 0.092143 1.470844 1.122783
v 0.092143 1.594152 1.122783
v -0.092143 1.470844 1.122783
v -0.092143 1.594152 1.122783
v 0.092143 0.470844 1.122778
v 0.092143 0.594152 1.122779
v -0.092143 0.470844 1.122778
v -0.092143 0.594152 1.122778
v 1.000000 0.032498 0.000000
v 0.000000 0.032498 -1.000000
v 0.000000 0.032498 1.000000
v -1.000000 0.032498 -0.000000
v 0.000000 0.032498 0.000000
v -1.000000 -0.117502 -0.800000
v 1.000000 -0.117502 -0.800000
v 0.000000 0.032498 -0.800000
v 1.000000 0.032498 -0.600000
v -1.000000 0.032498 -0.600000
v 0.000000 0.032498 -0.600000
v 1.000000 -0.117502 0.800000
v -1.000000 -0.117502 0.800000
v 0.000000 0.032498 0.800000
v -1.000000 0.032498 0.600000
v 0.000000 0.032498 0.600000
v 1.000000 0.032498 0.600000
v -0.800000 -0.117502 -1.000000
v -0.800000 -0.117502 1.000000
v -0.800000 0.032498 -0.000000
v -0.800000 -0.117502 -0.800000
v -0.800000 0.032498 -0.600000
v -0.800000 -0.117502 0.800000
v -0.800000 0.032498 0.600000
v -0.600000 0.032498 -1.000000
v -0.600000 0.032498 1.000000
v -0.600000 0.032498 -0.000000
v -0.600000 0.032498 -0.800000
v -0.600000 0.032498 -0.600000
v -0.600000 0.032498 0.800000
v -0.600000 0.032498 0.600000
v 0.600000 0.032498 -1.000000
v 0.600000 0.032498 1.000000
v 0.600000 0.032498 0.000000
v 0.600000 0.032498 -0.800000
v 0.600000 0.032498 -0.600000
v 0.600000 0.032498 0.800000
v 0.600000 0.032498 0.600000
v 0.800000 -0.117502 -1.000000
v 0.800000 -0.117502 1.000000
v 0.800000 0.032498 0.000000
v 0.800000 -0.117502 -0.800000
v 0.800000 0.032498 -0.600000
v 0.800000 -0.117502 0.800000
v 0.800000 0.032498 0.600000
vn 0.0000 -1.0000 0.0000
vn -1.0000 -0.0000 0.0000
vn 0.0000 1.0000 0.0000
vn 1.0000 0.0000 0.0000
vn 0.0003 0.0024 1.0000
vn 0.0012 -0.0002 1.0000
vn 0.0003 -0.0024 1.0000
vn -0.0003 0.0024 1.0000
vn 0.0011 0.0004 1.0000
vn -0.0003 -0.0024 1.0000
vn -0.0011 0.0004 1.0000
vn -0.0012 -0.0003 1.0000
vn 0.0012 -0.0003 1.0000
vn 0.0002 -0.0025 1.0000
vn -0.0012 0.0002 1.0000
vn 0.0012 0.0002 1.0000
vn 0.0000 0.0000 -1.0000
vn 0.0004 0.0098 1.0000
vn 0.0087 -0.0002 1.0000
vn -0.0037 -0.0000 1.0000
vn -0.0004 0.0098 1.0000
vn 0.0087 0.0002 1.0000
vn 0.0037 -0.0000 1.0000
vn -0.0087 0.0002 1.0000
vn -0.0087 -0.0002 1.0000
vn 0.0006 -0.0068 1.0000
vn 0.0073 -0.0013 1.0000
vn -0.0006 -0.0068 1.0000
vn -0.0000 -0.0074 1.0000
vn -0.0000 -0.8000 0.6000
vn 0.0000 -0.8000 -0.6000
vn 0.3313 -0.8834 -0.3313
vn 0.3313 -0.8834 0.3313
vn 0.3313 -0.8835 0.3313
vn 0.6000 -0.8000 0.0000
vn -0.3313 -0.8834 -0.3313
vn -0.3313 -0.8834 0.3313
vn -0.3313 -0.8835 0.3313
vn -0.6000 -0.8000 0.0000
vn -0.0073 -0.0013 1.0000
vn 0.3313 -0.8835 -0.3313
vn -0.3313 -0.8835 -0.3313
vn -0.0000 -0.0000 1.0000
usemtl drawer_folder
s 1
f 11//1 21//1 14//1
f 14//2 22//2 13//2
f 17//3 24//3 16//3
f 16//4 23//4 15//4
f 13//3 20//3 12//3
f 18//2 26//2 17//2
f 12//4 19//4 11//4
f 15//1 25//1 18//1
f 20//5 27//6 19//7
f 22//8 28//9 20//5
f 21//10 29//11 22//8
f 19//7 30//12 21//10
f 24//5 31//13 23//14
f 24//5 33//15 32//16
f 25//10 33//15 26//8
f 23//14 34//12 25//10
f 11//1 19//1 21//1
f 14//2 21//2 22//2
f 17//3 26//3 24//3
f 16//4 24//4 23//4
f 13//3 22//3 20//3
f 18//2 25//2 26//2
f 12//4 20//4 19//4
f 15//1 23//1 25//1
f 20//5 28//9 27//6
f 22//8 29//11 28//9
f 21//10 30//12 29//11
f 19//7 27//6 30//12
f 24//5 32//16 31//13
f 24//5 26//8 33//15
f 25//10 34//12 33//15
f 23//14 31//13 34//12
usemtl drawer_outside
f 61//1 55//1 65//1
f 8//3 6//3 5//3
f 9//4 43//4 5//4
f 8//2 46//2 10//2
f 4//17 8//17 67//17
f 6//18 11//19 9//20
f 7//21 12//22 6//18
f 10//23 13//24 7//21
f 9//20 14//25 10//23
f 9//20 15//26 2//27
f 9//20 17//24 16//22
f 10//23 18//28 17//24
f 75//29 82//29 15//26
f 62//1 52//1 64//1
f 76//1 53//1 78//1
f 75//1 56//1 79//1
f 77//1 44//1 74//1
f 63//1 4//1 60//1
f 78//1 50//1 77//1
f 64//30 48//30 63//30
f 79//1 58//1 80//1
f 65//31 57//31 66//31
f 66//1 46//1 62//1
f 80//1 47//1 76//1
f 69//1 66//1 62//1
f 72//32 66//32 73//32
f 70//33 64//33 63//34
f 67//35 63//35 60//35
f 69//1 64//1 71//1
f 68//35 65//35 72//35
f 45//1 72//1 56//1
f 47//1 71//1 53//1
f 50//1 67//1 44//1
f 53//1 70//1 50//1
f 56//1 73//1 58//1
f 58//1 69//1 47//1
f 87//1 76//1 83//1
f 87//36 79//36 80//36
f 85//37 77//37 84//38
f 84//39 74//39 81//39
f 82//39 79//39 86//39
f 83//1 78//1 85//1
f 43//1 85//1 51//1
f 54//1 82//1 86//1
f 1//1 84//1 81//1
f 51//30 84//30 49//30
f 54//31 87//31 59//31
f 59//1 83//1 43//1
f 61//1 3//1 55//1
f 8//3 7//3 6//3
f 49//4 1//4 51//4
f 1//4 5//4 51//4
f 5//4 6//4 9//4
f 9//4 2//4 59//4
f 2//4 54//4 59//4
f 59//4 43//4 9//4
f 43//4 51//4 5//4
f 55//2 3//2 57//2
f 3//2 10//2 57//2
f 10//2 7//2 8//2
f 8//2 4//2 52//2
f 4//2 48//2 52//2
f 52//2 46//2 8//2
f 46//2 57//2 10//2
f 8//17 5//17 44//17
f 5//17 1//17 74//17
f 1//17 81//17 74//17
f 74//17 44//17 5//17
f 44//17 67//17 8//17
f 60//17 4//17 67//17
f 6//18 12//22 11//19
f 7//21 13//24 12//22
f 10//23 14//25 13//24
f 9//20 11//19 14//25
f 9//20 16//22 15//26
f 9//20 10//23 17//24
f 10//23 3//40 18//28
f 18//28 3//40 61//29
f 68//29 45//29 18//28
f 45//29 75//29 15//26
f 18//28 45//29 15//26
f 18//28 61//29 68//29
f 82//29 2//27 15//26
f 62//1 46//1 52//1
f 76//1 47//1 53//1
f 75//1 45//1 56//1
f 77//1 50//1 44//1
f 63//1 48//1 4//1
f 78//1 53//1 50//1
f 64//30 52//30 48//30
f 79//1 56//1 58//1
f 65//31 55//31 57//31
f 66//1 57//1 46//1
f 80//1 58//1 47//1
f 69//1 73//1 66//1
f 72//32 65//41 66//32
f 70//33 71//33 64//33
f 67//35 70//35 63//35
f 69//1 62//1 64//1
f 68//35 61//35 65//35
f 45//1 68//1 72//1
f 47//1 69//1 71//1
f 50//1 70//1 67//1
f 53//1 71//1 70//1
f 56//1 72//1 73//1
f 58//1 73//1 69//1
f 87//1 80//1 76//1
f 87//36 86//42 79//36
f 85//37 78//37 77//37
f 84//39 77//39 74//39
f 82//39 75//39 79//39
f 83//1 76//1 78//1
f 43//1 83//1 85//1
f 54//1 2//1 82//1
f 1//1 49//1 84//1
f 51//30 85//30 84//30
f 54//31 86//31 87//31
f 59//1 87//1 83//1
usemtl drawer_knob
f 34//2 42//2 33//2
f 28//3 38//3 36//3
f 35//43 38//43 37//43
f 40//43 41//43 39//43
f 28//4 35//4 27//4
f 34//1 39//1 41//1
f 30//2 38//2 29//2
f 30//1 35//1 37//1
f 32//3 42//3 40//3
f 32//4 39//4 31//4
f 34//2 41//2 42//2
f 28//3 29//3 38//3
f 35//43 36//43 38//43
f 40//43 42//43 41//43
f 28//4 36//4 35//4
f 34//1 31//1 39//1
f 30//2 37//2 38//2
f 30//1 27//1 35//1
f 32//3 33//3 42//3
f 32//4 40//4 39//4